# xmcd
#
# Track frame offsets:
#	150
#	18318
#	33496
#	45566
#	59528
#	77898
#	92391
#	108239
#	122754
#	138755
#	153447
#	168416
#	181224
#	193273
#	208133
#	220473
#	233060
#	248687
#	265811
#	274981
#
# Disc length: 3892 seconds
#
# Revision: 1
# Processed by: cddbd v1.4PL0 Copyright (c) Steve Scherf et al.
# Submitted via: audiograbber 1.80
#
DISCID=190f3214
DTITLE=Dolly Parton - Queen of Country [CD2)
DYEAR=1900
DGENRE=
TTITLE0=Starting over again
TTITLE1=Tie our love (in a double knot)
TTITLE2=It's my time
TTITLE3=The seeker
TTITLE4=The house of the rising sun
TTITLE5=Heartbreak express
TTITLE6=I walk the line
TTITLE7=I really got the feeling
TTITLE8=Detroit city
TTITLE9=It's all wrong, but it's all right
TTITLE10=Downtown
TTITLE11=Mama say a prayer
TTITLE12=The last thing on my mind 
TTITLE13=Harper valley pta
TTITLE14=To daddy
TTITLE15=D.i.v.o.r.c.e
TTITLE16=Old flames (can't hold a candle to you)
TTITLE17=The great pretender
TTITLE18=We'll get ahead someday
TTITLE19=Save the last dance for me
EXTD=
EXTT0=
EXTT1=
EXTT2=
EXTT3=
EXTT4=
EXTT5=
EXTT6=
EXTT7=
EXTT8=
EXTT9=
EXTT10=
EXTT11=
EXTT12=
EXTT13=
EXTT14=
EXTT15=
EXTT16=
EXTT17=
EXTT18=
EXTT19=
PLAYORDER=
